<svg width="512" height="512" viewBox="0 0 512 512" fill="none" xmlns="http://www.w3.org/2000/svg">
  <rect width="512" height="512" fill="#1a1a1a"/>
  <g transform="translate(85, 128) scale(1.5)">
    <path d="M109.42 130.16C109.27 130.23 109.42 129.94 109.42 130.16V130.16ZM81.5602 70.69C81.5602 72.4 82.1802 71.44 82.9302 70.69C82.4102 70.3 81.9802 70.05 81.5602 70.69ZM75.5102 97.61C75.5102 99.15 75.6402 101.07 76.4502 102.29C76.4502 104.14 76.4502 105.99 76.4502 107.83C76.4502 108.93 76.3002 109.86 75.5102 110.64C74.4002 111.75 73.8102 111.58 72.2702 111.58C70.7302 111.58 70.1402 111.75 69.0302 110.64C69.0302 109.63 68.5302 109.08 68.5302 108.26C68.5302 107.01 68.9902 105.96 70.4002 105.96C71.4102 105.96 72.7002 105.96 72.7002 104.59C71.8202 103.26 70.4502 103.65 69.0302 103.65C67.9702 103.65 69.0502 102.28 67.5902 102.28C66.5802 103.28 66.7302 103.9 66.7302 105.27C66.7302 105.98 66.7302 106.69 66.7302 107.39C66.7302 108.05 67.1602 108.07 67.1602 108.76C67.1602 110.6 68.5302 112.16 68.5302 113.87C69.0002 114.34 69.4702 115.96 69.4702 116.61C69.9502 117.09 70.4102 118.33 70.4102 118.99C70.4102 119.66 70.9102 119.69 70.9102 120.36C70.9102 120.84 70.9102 121.32 70.9102 121.8C71.6402 122.17 71.3402 123.43 71.3402 124.1C71.3402 125.49 71.3402 126.88 71.3402 128.28C71.3402 129.92 70.4402 129.65 69.0402 129.65C67.8602 128.86 67.6002 128.9 67.6002 127.35C67.6002 126.58 67.1702 125.96 67.1702 125.05C67.1702 123.98 66.7402 123.12 66.7402 122.24C66.7402 121.77 66.2102 119.84 65.8002 119.43C65.8002 117.49 64.8602 116.17 64.8602 114.32C64.8602 113.4 63.9202 112.53 63.9202 111.58C63.9202 111.08 63.4002 109.19 62.9802 108.77C62.9802 106.7 60.4802 106.47 58.8002 106.47C57.6502 106.47 57.4302 105.78 57.4302 104.6C56.7802 103.95 56.4902 103.24 56.4902 102.3C55.6402 101.44 55.8402 100.29 55.0502 99.49C55.0502 98.53 54.6202 98.14 54.6202 97.19C54.6202 96 53.6802 95.19 53.6802 93.95C53.6802 93.16 53.2502 92.53 53.2502 91.57C52.0902 90.8 52.7502 86.37 52.7502 85.09C52.7502 84.47 52.7502 83.84 52.7502 83.22C52.7502 82.55 53.2502 82.52 53.2502 81.85C53.6602 81.04 54.0102 79.65 54.6202 79.04C54.6202 77.96 54.6202 76.88 54.6202 75.8C53.7102 74.88 52.7502 74.32 52.7502 72.99C52.7502 71.63 53.5702 69.63 52.7502 68.81C52.7502 68.17 53.0402 66.68 52.5102 66.26C51.8802 65.77 52.5302 64.41 51.8202 63.69C51.8202 62.67 51.3902 61.8 51.3902 60.95C51.3902 58.94 50.4502 56.91 50.4502 54.9C50.4502 53.59 49.9502 52.76 49.9502 51.59C49.9502 50.59 49.9502 49.6 49.9502 48.6C49.9502 47.32 49.9502 46.05 49.9502 44.77C49.9502 43.75 49.5202 43.64 49.5202 42.81C49.5202 41.99 49.1802 40.59 48.5802 40C48.5802 37.99 47.6402 36.55 47.6402 34.46C47.6402 32.39 46.7802 29.84 45.3402 28.41C45.3402 27.33 45.3402 26.25 45.3402 25.17C45.3402 24.17 46.9302 23.07 47.6402 22.36C49.7402 22.36 51.1602 19.62 53.2602 19.62C53.4402 19.07 54.1102 18.68 54.6302 18.68C54.9702 18.16 55.5602 17.68 56.0002 17.24C56.4902 16.75 56.9402 15.11 56.9402 14.43C56.9402 12.63 57.9802 9.65002 59.2402 8.38002C59.2402 6.40002 62.0502 4.88002 62.0502 2.84002C63.1402 1.75002 63.6502 0.0300179 65.2802 0.0300179C66.5402 0.0300179 69.3802 -0.449982 68.0902 1.47002C68.0902 2.30002 67.7502 3.62002 67.1502 4.21002C67.1502 5.15002 66.8502 6.38002 66.2102 7.02002C65.0302 8.19002 64.3402 8.02002 64.3402 9.83002C63.4902 10.68 64.2702 11.7 63.4002 12.57C63.4002 14.14 61.2502 17.1 60.1602 18.19C60.1602 19.12 59.8502 20.8 59.2202 21.43C59.2202 22.47 58.7902 23.38 58.7902 24.24C58.7902 26.43 56.9202 27.18 56.9202 29.35C56.9202 30.53 56.4902 30.55 56.4902 31.44C56.4902 32.91 56.9202 31.42 56.9202 32.82C56.9202 34.14 56.9202 35.45 56.9202 36.77C56.9202 38.03 56.4902 38.86 56.4902 40.01C56.4902 40.47 56.4902 40.92 56.4902 41.38C56.4902 42.14 55.9902 42.06 55.9902 42.82C55.9902 43.44 55.9902 44.07 55.9902 44.69C55.9902 45.35 55.5602 45.37 55.5602 46.06C55.5602 47.23 55.0602 47.77 55.0602 48.87C55.0602 49.98 54.6302 50.56 54.6302 51.61C54.6302 53.07 54.5302 54.41 54.3102 55.86C54.0102 57.82 55.1402 60.54 56.5002 61.91C56.5002 63.02 56.9302 63.6 56.9302 64.65C56.9302 65.64 56.5702 67.31 57.4302 67.89C57.4302 71.15 57.4302 74.42 57.4302 77.68C58.5302 79.87 62.4002 76.24 63.4102 76.24C64.1702 75.48 65.6402 75.3 66.7202 75.3C68.7102 75.3 68.2702 75.56 69.4602 76.74C69.4602 77.41 69.9402 77.66 70.4002 78.11C70.4002 78.81 70.2402 79.04 70.9002 79.48C70.9002 80.86 71.9202 81.07 72.7002 81.86C74.5202 80.03 72.2702 79.22 72.2702 77.18C70.2502 75.16 74.1402 76.27 74.1402 78.12C74.5202 78.5 75.0802 79.96 75.0802 80.42C75.0802 81.38 75.5102 81.99 75.5102 82.8C75.5102 83.88 75.5102 84.96 75.5102 86.04C75.5102 87.15 75.1602 87.04 74.5702 87.91C73.1102 88.64 74.5702 92.42 74.5702 93.45C74.5702 94.42 75.0702 95 75.0702 95.75C75.0702 96.54 74.9202 97.03 75.5102 97.61ZM63.4102 90.7C63.7802 90.14 64.7402 90.04 65.2802 89.76C65.8402 88.92 66.7302 88.62 65.2802 87.89C64.7402 87.89 63.7202 88.36 63.4102 88.83C62.5502 89.26 62.0502 90.7 63.4102 90.7ZM60.6702 87.39C61.5902 87.39 61.6402 86.45 62.5402 86.45C63.2702 85.72 62.6202 85.67 62.0402 85.08C61.0102 85.09 59.3502 86.51 60.6702 87.39ZM65.7902 100.42C65.7902 99.06 64.6302 99.44 65.2902 100.42C65.4502 100.42 65.6202 100.42 65.7902 100.42ZM66.2202 96.68C66.2202 95.04 62.0402 95.34 62.0402 97.18C62.8402 97.98 66.2202 97.92 66.2202 96.68ZM66.7202 92.5C65.5302 91.71 65.1902 92.5 63.9102 92.5C62.4902 92.5 62.1202 92.42 61.1002 93.44C62.4002 94.73 62.5002 93.94 63.9102 93.94C64.6602 92.81 64.7002 93 66.2102 93C66.3902 92.84 66.5602 92.67 66.7202 92.5ZM73.6402 85.52C74.3402 85.52 74.5402 85.63 75.0802 85.09C74.0402 84.05 75.1802 82.79 73.2102 82.79C71.8802 84.11 72.3802 84.26 73.6402 85.52ZM73.6402 85.52C73.7802 85.52 73.4902 85.37 73.6402 85.52V85.52Z" fill="#FE4E00"/>
  </g>
</svg>