<svg width="289" height="159" viewBox="0 0 289 159" fill="none" xmlns="http://www.w3.org/2000/svg">
<path d="M109.42 130.16C109.27 130.23 109.42 129.94 109.42 130.16V130.16ZM81.5602 70.69C81.5602 72.4 82.1802 71.44 82.9302 70.69C82.4102 70.3 81.9802 70.05 81.5602 70.69ZM75.5102 97.61C75.5102 99.15 75.6402 101.07 76.4502 102.29C76.4502 104.14 76.4502 105.99 76.4502 107.83C76.4502 108.93 76.3002 109.86 75.5102 110.64C74.4002 111.75 73.8102 111.58 72.2702 111.58C70.7302 111.58 70.1402 111.75 69.0302 110.64C69.0302 109.63 68.5302 109.08 68.5302 108.26C68.5302 107.01 68.9902 105.96 70.4002 105.96C71.4102 105.96 72.7002 105.96 72.7002 104.59C71.8202 103.26 70.4502 103.65 69.0302 103.65C67.9702 103.65 69.0502 102.28 67.5902 102.28C66.5802 103.28 66.7302 103.9 66.7302 105.27C66.7302 105.98 66.7302 106.69 66.7302 107.39C66.7302 108.05 67.1602 108.07 67.1602 108.76C67.1602 110.6 68.5302 112.16 68.5302 113.87C69.0002 114.34 69.4702 115.96 69.4702 116.61C69.9502 117.09 70.4102 118.33 70.4102 118.99C70.4102 119.66 70.9102 119.69 70.9102 120.36C70.9102 120.84 70.9102 121.32 70.9102 121.8C71.6402 122.17 71.3402 123.43 71.3402 124.1C71.3402 125.49 71.3402 126.88 71.3402 128.28C71.3402 129.92 70.4402 129.65 69.0402 129.65C67.8602 128.86 67.6002 128.9 67.6002 127.35C67.6002 126.58 67.1702 125.96 67.1702 125.05C67.1702 123.98 66.7402 123.12 66.7402 122.24C66.7402 121.77 66.2102 119.84 65.8002 119.43C65.8002 117.49 64.8602 116.17 64.8602 114.32C64.8602 113.4 63.9202 112.53 63.9202 111.58C63.9202 111.08 63.4002 109.19 62.9802 108.77C62.9802 106.7 60.4802 106.47 58.8002 106.47C57.6502 106.47 57.4302 105.78 57.4302 104.6C56.7802 103.95 56.4902 103.24 56.4902 102.3C55.6402 101.44 55.8402 100.29 55.0502 99.49C55.0502 98.53 54.6202 98.14 54.6202 97.19C54.6202 96 53.6802 95.19 53.6802 93.95C53.6802 93.16 53.2502 92.53 53.2502 91.57C52.0902 90.8 52.7502 86.37 52.7502 85.09C52.7502 84.47 52.7502 83.84 52.7502 83.22C52.7502 82.55 53.2502 82.52 53.2502 81.85C53.6602 81.04 54.0102 79.65 54.6202 79.04C54.6202 77.96 54.6202 76.88 54.6202 75.8C53.7102 74.88 52.7502 74.32 52.7502 72.99C52.7502 71.63 53.5702 69.63 52.7502 68.81C52.7502 68.17 53.0402 66.68 52.5102 66.26C51.8802 65.77 52.5302 64.41 51.8202 63.69C51.8202 62.67 51.3902 61.8 51.3902 60.95C51.3902 58.94 50.4502 56.91 50.4502 54.9C50.4502 53.59 49.9502 52.76 49.9502 51.59C49.9502 50.59 49.9502 49.6 49.9502 48.6C49.9502 47.32 49.9502 46.05 49.9502 44.77C49.9502 43.75 49.5202 43.64 49.5202 42.81C49.5202 41.99 49.1802 40.59 48.5802 40C48.5802 37.99 47.6402 36.55 47.6402 34.46C47.6402 32.39 46.7802 29.84 45.3402 28.41C45.3402 27.33 45.3402 26.25 45.3402 25.17C45.3402 24.17 46.9302 23.07 47.6402 22.36C49.7402 22.36 51.1602 19.62 53.2602 19.62C53.4402 19.07 54.1102 18.68 54.6302 18.68C54.9702 18.16 55.5602 17.68 56.0002 17.24C56.4902 16.75 56.9402 15.11 56.9402 14.43C56.9402 12.63 57.9802 9.65002 59.2402 8.38002C59.2402 6.40002 62.0502 4.88002 62.0502 2.84002C63.1402 1.75002 63.6502 0.0300179 65.2802 0.0300179C66.5402 0.0300179 69.3802 -0.449982 68.0902 1.47002C68.0902 2.30002 67.7502 3.62002 67.1502 4.21002C67.1502 5.15002 66.8502 6.38002 66.2102 7.02002C65.0302 8.19002 64.3402 8.02002 64.3402 9.83002C63.4902 10.68 64.2702 11.7 63.4002 12.57C63.4002 14.14 61.2502 17.1 60.1602 18.19C60.1602 19.12 59.8502 20.8 59.2202 21.43C59.2202 22.47 58.7902 23.38 58.7902 24.24C58.7902 26.43 56.9202 27.18 56.9202 29.35C56.9202 30.53 56.4902 30.55 56.4902 31.44C56.4902 32.91 56.9202 31.42 56.9202 32.82C56.9202 34.14 56.9202 35.45 56.9202 36.77C56.9202 38.03 56.4902 38.86 56.4902 40.01C56.4902 40.47 56.4902 40.92 56.4902 41.38C56.4902 42.14 55.9902 42.06 55.9902 42.82C55.9902 43.44 55.9902 44.07 55.9902 44.69C55.9902 45.35 55.5602 45.37 55.5602 46.06C55.5602 47.23 55.0602 47.77 55.0602 48.87C55.0602 49.98 54.6302 50.56 54.6302 51.61C54.6302 53.07 54.5302 54.41 54.3102 55.86C54.0102 57.82 55.1402 60.54 56.5002 61.91C56.5002 63.02 56.9302 63.6 56.9302 64.65C56.9302 65.64 56.5702 67.31 57.4302 67.89C57.4302 71.15 57.4302 74.42 57.4302 77.68C58.5302 79.87 62.4002 76.24 63.4102 76.24C64.1702 75.48 65.6402 75.3 66.7202 75.3C68.7102 75.3 68.2702 75.56 69.4602 76.74C69.4602 77.41 69.9402 77.66 70.4002 78.11C70.4002 78.81 70.2402 79.04 70.9002 79.48C70.9002 80.86 71.9202 81.07 72.7002 81.86C74.5202 80.03 72.2702 79.22 72.2702 77.18C70.2502 75.16 74.1402 76.27 74.1402 78.12C74.5202 78.5 75.0802 79.96 75.0802 80.42C75.0802 81.38 75.5102 81.99 75.5102 82.8C75.5102 83.88 75.5102 84.96 75.5102 86.04C75.5102 87.15 75.1602 87.04 74.5702 87.91C73.1102 88.64 74.5702 92.42 74.5702 93.45C74.5702 94.42 75.0702 95 75.0702 95.75C75.0702 96.54 74.9202 97.03 75.5102 97.61ZM63.4102 90.7C63.7802 90.14 64.7402 90.04 65.2802 89.76C65.8402 88.92 66.7302 88.62 65.2802 87.89C64.7402 87.89 63.7202 88.36 63.4102 88.83C62.5502 89.26 62.0502 90.7 63.4102 90.7ZM60.6702 87.39C61.5902 87.39 61.6402 86.45 62.5402 86.45C63.2702 85.72 62.6202 85.67 62.0402 85.08C61.0102 85.09 59.3502 86.51 60.6702 87.39ZM65.7902 100.42C65.7902 99.06 64.6302 99.44 65.2902 100.42C65.4502 100.42 65.6202 100.42 65.7902 100.42ZM66.2202 96.68C66.2202 95.04 62.0402 95.34 62.0402 97.18C62.8402 97.98 66.2202 97.92 66.2202 96.68ZM66.7202 92.5C65.5302 91.71 65.1902 92.5 63.9102 92.5C62.4902 92.5 62.1202 92.42 61.1002 93.44C62.4002 94.73 62.5002 93.94 63.9102 93.94C64.6602 92.81 64.7002 93 66.2102 93C66.3902 92.84 66.5602 92.67 66.7202 92.5ZM73.6402 85.52C74.3402 85.52 74.5402 85.63 75.0802 85.09C74.0402 84.05 75.1802 82.79 73.2102 82.79C71.8802 84.11 72.3802 84.26 73.6402 85.52ZM73.6402 85.52C73.7802 85.52 73.4902 85.37 73.6402 85.52V85.52ZM27.7002 107.84C26.3302 107.84 26.2602 109.08 26.2602 110.14C27.5302 110.14 28.8402 107.84 27.7002 107.84ZM28.6402 104.09C28.6402 104.96 28.1402 105.34 28.1402 106.44C28.1402 107.96 28.7002 107.49 29.5802 106.9C30.1702 106.9 29.7102 104.09 28.6402 104.09ZM66.2202 93.01C66.3602 92.79 65.9302 93.01 66.2202 93.01V93.01ZM25.8302 113.89C26.8402 113.89 25.8302 112.7 25.8302 113.89V113.89ZM13.3002 16.33C13.3002 15.63 12.9402 15.9 12.3602 15.9C12.3602 16.67 12.3602 17.44 12.3602 18.2C14.4302 18.2 13.3002 17.66 13.3002 16.33ZM27.1902 38.65C27.9502 37.51 29.5702 38.58 29.5702 36.92C29.5702 35.06 29.4102 34.83 28.1302 33.53C27.5702 33.53 27.1902 35.14 27.1902 35.83C26.6602 36.38 26.2802 38.65 27.1902 38.65ZM165.07 135.7C163.53 135.7 162.08 134.76 160.46 134.76C158.99 134.76 157.27 133.82 155.78 133.82C153.93 133.82 152.08 133.82 150.24 133.82C149.76 133.82 149.28 133.82 148.8 133.82C148.13 133.82 148.1 134.32 147.43 134.32C147.12 134.61 146.83 134.92 146.57 135.26C146.57 135.89 147 136 147 136.63C147.34 136.63 149.05 137.19 149.3 137.57C150.44 137.57 150.98 138 152.06 138C153.13 138 153.77 137.57 154.91 137.57C155.84 137.57 156.3 138.51 157.21 138.51C159.06 138.51 160.91 138.51 162.75 138.51C163.75 138.51 167.63 135.7 165.07 135.7ZM179.98 145.93C179.98 145.78 179.83 146.07 179.98 145.93V145.93ZM156.72 72.56C156.72 72.7 156.87 72.34 156.72 72.56V72.56ZM27.1902 35.84C27.1902 35.69 27.0502 35.98 27.1902 35.84V35.84ZM30.9402 115.25C32.1602 116.47 32.8102 114.51 32.8102 113.38C31.3602 113.38 30.9402 113.68 30.9402 115.25ZM2.57022 149.67C2.57022 150.97 3.33022 150.53 4.44022 150.53C5.84022 150.53 5.81022 150.68 5.81022 149.16C5.81022 147.34 2.57022 148.63 2.57022 149.67ZM141.03 100.42C141.17 100.42 140.81 100.21 141.03 100.42V100.42ZM178.11 138.01C178.11 138 178.11 138 178.11 138.01C178.07 138.04 178.03 138.08 178.11 138.01ZM11.8602 125.05C12.0002 124.83 11.7202 125.12 11.8602 125.05V125.05ZM26.2602 86.96C26.4002 86.6 26.1102 86.96 26.2602 86.96V86.96ZM27.1902 80.41C27.1902 80.26 27.0502 80.55 27.1902 80.41V80.41ZM44.4002 97.61C44.4002 97.47 44.2602 97.76 44.4002 97.61V97.61ZM21.6502 66.51C21.6202 66.53 21.6102 66.55 21.5802 66.57C21.6002 66.56 21.7002 66.51 21.6502 66.51ZM8.19022 119C8.33022 119.14 8.19022 118.85 8.19022 119V119ZM23.5202 86.02C23.5902 85.88 23.3102 86.17 23.5202 86.02V86.02ZM14.2302 110.65C14.2302 110.5 14.0202 110.79 14.2302 110.65V110.65ZM23.5202 110.65C24.5302 110.65 24.7802 110.54 23.9502 109.71C23.2702 109.71 23.5202 110.05 23.5202 110.65ZM48.0702 89.77C48.0702 88.86 46.2702 87.5 46.2702 88.83C46.2702 90.16 46.9202 89.77 48.0702 89.77ZM60.6702 87.39C60.8202 87.39 60.4602 87.25 60.6702 87.39V87.39ZM7.68022 29.79C7.83022 29.93 7.83022 29.65 7.68022 29.79V29.79ZM50.8802 94.37C50.8802 96.06 49.0102 95.39 49.0102 97.61C49.6802 98.28 50.0202 100.42 48.5802 100.42C47.5202 101.47 46.1802 100.75 45.3402 99.92C44.5902 99.16 42.6302 99.62 42.1002 100.42C39.5702 100.42 37.7402 102.29 35.1202 102.29C34.0402 102.29 32.8202 101.35 31.6302 101.35C30.0502 101.35 29.8202 103.06 28.6402 103.65C28.6402 102.19 26.5202 101.78 25.4002 101.78C24.3802 102.46 24.4602 103.89 24.4602 105.02C24.0202 105.22 23.8502 105.53 23.9602 105.96C23.5402 105.86 23.2202 106.03 23.0202 106.46C23.0202 107.17 23.4402 108.76 22.5902 108.76C21.4802 108.76 19.6802 108.37 18.8502 109.19C17.5302 109.19 17.4902 112.32 18.4202 112.93C19.9702 113.71 20.6102 112.93 22.0902 112.93C23.5902 112.93 23.9802 111.99 25.4002 112.93C25.4002 114.19 23.9002 115.29 23.0202 116.17C21.7502 116.17 20.6302 117.11 19.3502 117.11C18.0802 117.11 17.5102 119 17.0502 119.92C15.5602 119.92 14.7902 120.23 13.7402 121.29C13.7402 122.07 13.5202 122.68 14.2402 123.16C14.5902 123.86 15.1802 123.75 15.1802 124.6C15.1802 125.59 12.7102 126.4 11.8702 126.4C11.4002 126.87 10.7002 127.34 10.0002 127.34C9.57022 127.77 9.40022 128.28 9.06022 128.78C8.59022 129.01 8.14022 130.13 7.69022 130.58C7.07022 130.58 6.44022 130.58 5.82022 130.58C4.68022 129.44 3.74022 129.42 2.58022 130.58C3.11022 131.11 3.67022 132.02 4.45022 132.02C5.15022 132.02 5.29022 131.93 5.82022 132.45C6.74022 132.45 8.07022 132.12 8.63022 132.95C10.1802 132.95 11.8702 132.38 11.8702 134.32C13.1302 135.58 11.4802 135.26 10.5002 135.26C9.52022 136.24 7.63022 137.51 9.06022 138.93C9.67022 138.93 9.98022 139.12 10.5002 139.43C11.4402 139.43 12.3702 139.43 13.3102 139.43C13.6102 138.53 15.7402 138.93 16.5502 138.93C17.7302 138.93 18.2402 137.56 19.3602 137.56C20.4402 137.56 22.1002 138.12 22.1002 139.43C22.1002 141.52 20.3502 139.48 19.8002 138.93C17.9102 138.93 19.0302 140.8 17.5002 140.8C16.4902 141.47 15.5402 141.3 14.2302 141.3C13.1602 141.3 9.58022 140.66 9.58022 142.16C9.05022 142.69 9.05022 142.99 8.64022 143.6C7.97022 143.6 7.94022 143.1 7.27022 143.1C5.73022 141.56 5.46022 143.7 4.89022 144.54C4.89022 145.37 3.03022 144.48 2.59022 144.04C1.96022 144.67 2.19022 145.51 1.22022 144.54C1.22022 143.75 1.32022 143.71 0.720216 143.1C0.720216 142.19 0.720216 141.28 0.720216 140.36C-0.539784 138.46 0.290216 134.01 0.290216 131.7C0.290216 125.49 0.720216 119.51 0.720216 113.36C0.720216 112.45 0.720216 111.54 0.720216 110.62C0.950216 110.04 1.22022 109.83 1.22022 109.18C1.22022 108.51 0.720216 108.48 0.720216 107.81C0.720216 107.35 0.720216 106.9 0.720216 106.44C0.720216 105.03 0.290216 104.16 0.290216 102.7C0.290216 101.07 0.290216 99.44 0.290216 97.8C0.290216 95.88 0.290216 93.96 0.290216 92.04C0.290216 90.9 0.720216 90.06 0.720216 88.8C0.720216 84.6 0.720216 80.4 0.720216 76.2C0.720216 60.1 0.290216 44.04 0.290216 27.96C1.21022 26.58 2.16022 26.01 2.16022 24.22C2.16022 23.14 0.720216 22.55 0.720216 21.41C-0.469784 20.22 0.640216 16.37 1.66022 15.36C2.63022 14.39 3.53022 13.49 4.90022 13.49C5.71022 14.29 5.84022 15.15 5.84022 16.3C5.84022 17.58 6.25022 18.68 7.71022 18.68C7.71022 19.99 7.28022 20.36 7.28022 21.42C8.30022 21.42 9.79022 23.5 10.5202 24.23C12.1702 24.23 11.8902 24.54 11.8902 26.1C11.8902 27.61 14.1802 25.16 14.7002 25.16C15.5302 25.16 16.0002 25.95 16.5702 26.53C17.6602 27.62 18.3102 27.47 19.8102 27.47C20.4002 26.88 20.9002 27.04 21.6802 27.04C22.0302 26.01 23.0502 26.28 23.0502 27.33C23.0502 28.15 23.0502 28.96 23.0502 29.78C23.0502 30.54 23.5502 30.46 23.5502 31.22C23.8602 31.84 24.4902 31.8 24.4902 32.59C24.7202 33.04 24.9802 33.66 25.4302 33.96C25.4302 34.58 25.4302 35.21 25.4302 35.83C25.4302 36.56 24.9302 36.49 24.9302 37.2C23.9702 38.16 24.9302 38.91 24.9302 40.01C24.9302 40.74 25.4302 40.67 25.4302 41.38C25.4302 41.86 25.4302 42.34 25.4302 42.82C25.4302 44.04 25.4302 45.27 25.4302 46.49C25.4302 47.57 26.0502 50.23 24.4902 50.23C23.5202 50.23 22.1702 50.63 21.6802 51.6C20.3102 52.52 22.1802 53.54 23.0502 53.54C24.7302 53.54 25.4302 53.06 25.4302 54.91C23.9102 55.41 23.0502 56.07 23.0502 57.72C23.9602 58.18 24.3702 59.09 25.4302 59.09C25.4302 59.72 25.8602 59.83 25.8602 60.46C25.8602 61.16 25.8602 61.86 25.8602 62.56C25.8602 63.57 25.4302 64.41 25.4302 65.57C25.4302 66.82 25.4302 68.07 25.4302 69.31C25.4302 70.71 24.0002 70.24 23.5602 71.11C22.3302 71.94 23.9902 74.42 22.1202 74.42C20.8802 75.65 21.7002 77.15 23.0602 75.79C23.7602 75.09 23.3102 74.6 24.0002 73.92C24.7302 73.92 25.4402 73.49 25.4402 74.42C25.9802 75.5 25.5202 76.64 26.8102 77.16C27.7602 76.22 27.5702 75.16 28.6802 74.42C30.2002 74.42 29.7502 75.79 30.9802 75.79C31.4702 75.3 31.8402 74.42 32.3502 74.42C32.3502 75.2 32.8502 75.1 32.8502 76C32.8502 77.04 32.7502 78.59 34.2202 78.59C34.7302 79.1 35.1602 78.79 35.1602 79.45C35.1602 80.07 35.1602 80.7 35.1602 81.32C35.1602 82.45 33.7902 83.01 33.7902 84.13C33.7902 84.87 36.5102 86.94 34.2202 86.94C32.9302 86.94 32.4502 88.4 33.2802 89.24C34.2902 90.25 34.5802 90.18 36.0902 90.18C37.0602 90.18 37.9402 89.24 38.8302 89.24C39.2302 88.84 40.2702 87.53 40.2702 88.81C40.2702 90.17 40.5502 89.7 41.2102 90.68C42.2002 90.68 43.0202 92.24 43.5102 92.98C44.8502 93.01 50.8802 92.15 50.8802 94.37ZM9.56022 30.73C10.2502 30.73 10.4902 30.57 10.9302 31.23C12.2402 31.23 12.8002 31.26 12.8002 29.79C12.8002 28.49 11.0202 28.42 9.99022 28.42C8.89021 27.31 8.44022 29.03 7.69022 29.79C8.41022 30.52 8.55022 30.73 9.56022 30.73ZM8.19022 119C9.23022 120.04 12.2302 119.29 10.4902 117.56C9.05021 116.11 8.19022 117.61 8.19022 119ZM12.3602 124.61C11.2302 122.9 10.0702 124.11 8.62022 124.11C8.62022 125.89 10.7202 125.61 11.8602 125.05C12.0302 124.9 12.1902 124.76 12.3602 124.61ZM14.2302 110.65C14.2302 109.89 13.7302 109.97 13.7302 109.21C12.6502 109.21 12.9502 109.71 11.8602 109.71C10.9902 109.71 10.1902 109.5 9.56022 110.14C9.56022 110.98 10.6002 112.01 11.4302 112.01C13.1102 112.01 12.9502 111.5 14.2302 110.65ZM16.1102 51.17C14.7602 50.26 13.0302 50.44 11.8602 51.6C11.8602 53.02 14.9302 52.28 15.6002 51.6C15.6702 51.53 15.6402 51.56 15.6002 51.6C15.7702 51.46 15.9402 51.32 16.1102 51.17ZM17.9102 33.97C17.9102 33.12 17.1602 31.67 16.1102 31.67C15.3702 32.17 15.9402 32.61 15.1702 32.61C14.4602 32.61 14.4402 32.18 13.7302 32.18C11.9602 32.18 12.7402 34.92 14.2302 34.92C15.7802 34.92 16.3002 34.76 17.4702 33.98C17.6202 33.97 17.7602 33.97 17.9102 33.97ZM21.2202 29.36C21.2202 28.3 20.7202 28.76 20.7202 27.99C19.5802 27.99 19.5002 28.57 20.2902 29.36C20.5902 29.36 20.9102 29.36 21.2202 29.36ZM24.4602 68.81C24.4602 67.23 23.0802 66.51 21.6502 66.51C21.5702 66.56 21.5702 66.57 21.5802 66.57C20.1302 67.65 23.6302 68.81 24.4602 68.81ZM22.5902 85.52C22.5902 86.46 22.8302 86.49 23.5302 86.02C24.0202 85.04 23.0502 84.59 22.5902 85.52ZM26.2602 85.52C25.7102 86.06 24.8802 86.96 26.2602 86.96C26.5902 86.13 27.0002 86.25 26.2602 85.52ZM27.1902 80.41C27.1902 77.74 25.3202 80.41 24.8902 80.41C24.8902 81.25 25.1502 81.4 25.8302 81.85C26.8502 81.85 26.6202 80.98 27.1902 80.41ZM29.5702 80.91C29.5702 79.26 27.8902 80.67 29.0702 81.85C29.5002 81.65 29.6702 81.33 29.5702 80.91ZM44.4002 97.61C44.4002 96.94 43.9002 96.91 43.9002 96.24C42.1102 96.25 43.0502 98.97 44.4002 97.61ZM65.2802 100.42C65.4302 100.42 65.1402 100.21 65.2802 100.42V100.42ZM38.7902 104.6C40.8602 104.6 38.7902 102.53 38.7902 104.6V104.6ZM13.3002 135.27C13.3702 135.05 13.0802 135.27 13.3002 135.27V135.27ZM13.7302 135.7C14.8302 135.7 15.9402 135.7 17.0402 135.7C18.7502 135.7 20.2802 134.19 20.2802 132.46C20.2802 130.53 17.4402 131.77 17.0402 132.96C16.0802 132.96 15.6302 133.39 14.6602 133.39C14.5002 133.39 13.4402 134.82 13.2902 135.26C12.1102 135.27 13.1102 135.7 13.7302 135.7ZM249.6 45.56C249.46 49.16 249.75 45.56 249.6 45.56V45.56ZM123.39 31.66C124.54 31.66 125.06 32.16 126.13 32.16C128.22 32.16 130.16 33.96 132.18 33.96C134.01 33.96 136.45 36.35 137.8 37.7C139.17 37.7 139.27 39.45 140.1 40C140.86 40.76 142.4 42.19 142.4 43.24C143.71 44.55 144.31 47.92 146.58 47.92C147.64 48.99 147.44 49.67 147.44 51.16C147.44 52.31 146.4 54.24 147.25 55.09C147.71 55.55 147.05 55.84 147.87 55.84C148.81 56.31 148.51 56.27 149.74 56.27C151.01 56.27 151.71 55.84 152.99 55.84C154.72 55.84 156.44 55.84 158.17 55.84C159.31 55.84 160.35 55.25 161.41 54.9C161.79 53.76 163.28 53.44 163.28 52.09C163.28 51.03 163.71 50.4 163.71 49.28C163.71 48.17 164.46 47.41 165.58 47.41C166.1 46.88 166.01 46.75 166.01 46.04C166.01 45.14 166.51 44.95 166.51 44.17C166.51 42.2 168.31 40.63 168.31 38.63C169.07 37.49 169.63 37.04 170.69 36.33C171.95 36.33 172.92 36.49 173.93 35.83C173.93 34.85 175.55 33.71 176.23 33.02C177.19 32.06 177.74 32.16 179.04 32.16C179.62 31.3 181.33 31.66 182.28 31.66C184.3 31.66 186.31 31.66 188.33 31.66C189.89 31.66 196.14 30.69 197.11 32.16C198.73 32.16 203.66 33.05 203.66 30.72C203.66 30.07 202.71 27.98 202.22 27.48C202.22 26.85 201.79 26.74 201.79 26.11C201.09 25.41 201.53 24.91 200.85 24.24C200.85 23.02 199.48 22.22 199.48 21C198.2 21 197.49 21.43 196.24 21.43C195.39 20.86 193.43 19.97 193.43 18.69C193.43 17.96 193.86 17.95 193.86 17.25C193.01 17.25 192.78 17.75 192.06 17.75C190.3 17.75 190.7 16.39 189.68 15.37C189.03 14.71 188.06 14.69 187.38 15.37C186.68 16.08 186.19 15.63 185.51 16.31C184.39 15.2 183.39 14.62 182.27 13.5C181.09 12.31 180.53 10.9 179.46 9.83002C178.55 8.92002 178.52 7.87002 178.52 6.59002C178.52 5.60002 178.57 5.65002 177.58 5.65002C176.92 6.30002 177.15 7.07002 177.15 7.95002C177.96 8.76002 177.58 10.58 177.58 11.69C176.13 13.13 175.11 11.96 173.91 10.75C173.91 9.99002 173.41 10.07 173.41 9.31002C173.41 8.14002 172.49 8.37002 171.61 8.37002C171.61 9.31002 171.19 11.55 172.04 12.11C171.47 12.49 171.42 13.05 170.67 13.05C170.08 13.05 169.73 12.8 169.73 13.48C168.48 13.48 167.43 10.49 167.43 9.30002C167.43 8.56002 166.51 7.08002 165.99 6.56002C165.99 5.62002 165.69 4.39002 165.05 3.75002C165.05 2.82002 164.11 2.34002 164.11 1.45002C163.65 0.770018 163.68 0.820018 163.68 0.0100179C162.59 0.0100179 162.54 0.220018 161.81 0.950018C161.3 1.46002 159.77 3.78002 159.07 2.39002C158.27 1.58002 157.41 1.45002 156.26 1.45002C155.64 1.87002 155.22 3.09002 154.89 3.75002C154.89 5.04002 152.51 5.94002 152.51 4.18002C151.87 3.54002 151.57 2.38002 151.57 1.44002C151.57 0.210018 149.71 1.43002 149.27 1.87002C147.94 1.87002 146.1 5.33002 146.1 6.55002C145.19 7.46002 144.68 8.33002 143.72 9.29002C142.63 10.38 142 10.23 140.48 10.23C137.22 10.23 139.27 7.28002 140.48 6.05002C141.31 5.22002 141.92 5.22002 141.92 3.75002C141.92 2.78002 140.23 1.62002 139.54 0.940018C138.36 0.940018 138.1 1.01002 137.24 1.88002C136.59 2.53002 135.34 3.75002 134.43 3.75002C133.88 4.30002 132.49 5.12002 131.69 5.12002C130.62 5.84002 130.73 6.58002 129.82 7.50002C129.82 9.07002 128.45 10.88 128.45 12.54C128.45 14.69 128.16 16.72 127.51 18.66C127.51 20.55 126.74 22.61 125.39 23.96C124.79 24.56 124.26 25.32 123.76 26.07C122.2 26.07 122.39 27.72 122.39 28.81C122.45 29.65 122.72 31.22 123.39 31.66ZM246.36 94.88C246.51 94.66 246.22 94.95 246.36 94.88V94.88ZM36.0502 65.57C36.9402 65.57 36.4602 64.61 36.0502 64.2C34.8102 64.21 34.8102 65.57 36.0502 65.57ZM264 60.46C264 60.32 263.86 60.61 264 60.46V60.46ZM208.78 10.28C208.78 9.21002 207.34 8.21002 207.34 9.34002C207.34 9.92002 208.12 10.28 208.78 10.28ZM66.7202 61.4C65.2702 60.44 63.5202 60.86 62.5402 62.34C62.5402 63.18 62.0402 63.58 62.0402 64.64C62.9402 64.64 63.1302 65.14 63.9102 65.14C65.1402 65.14 66.7202 66.66 66.7202 67.88C66.7202 68.82 66.9802 71.12 68.0902 71.12C68.7002 71.73 69.2802 71.87 69.9602 72.56C70.6802 73.28 71.3302 74.93 71.3302 72.99C71.3302 71.47 71.0302 69.89 69.9602 68.81C68.8002 68.04 67.1502 66.49 67.1502 65.14C66.4602 64.1 66.7202 62.67 66.7202 61.4ZM39.7202 87.39C40.6102 88.28 39.9602 88.49 41.1602 87.89C42.0102 87.89 42.2402 87.39 42.9602 87.39C43.6902 87.39 44.4002 86.78 44.4002 86.02C43.7802 86.02 43.1502 86.02 42.5302 86.02C41.4802 87.07 39.7202 86.59 39.7202 85.08C39.7202 83.63 40.2202 82.61 40.2202 81.34C41.5002 80.06 40.2602 78.14 39.2802 77.16C37.9802 75.86 37.4102 78.52 37.4102 79.46C37.4102 81.16 37.4102 82.87 37.4102 84.57C37.4102 85.46 37.2702 85.8 37.9102 86.44C38.6002 87.13 39.0602 86.73 39.7202 87.39ZM239.88 102.29C239.88 102.08 239.67 102.44 239.88 102.29V102.29ZM244.49 97.18C244.49 96.97 244.35 97.33 244.49 97.18V97.18ZM215.26 56.29C215.26 54.89 215.58 53.99 213.82 53.99C213.23 53.99 212.95 55.6 212.95 56.29C212.95 57.06 212.95 57.83 212.95 58.59C214.08 58.59 214.54 57.01 215.26 56.29ZM287.69 111.58C286.96 112.31 285.74 112.87 286.75 113.88C286.75 114.65 286.75 115.42 286.75 116.18C286.75 116.97 285.55 116.61 284.88 116.61C283.99 116.61 283.08 116.1 282.58 116.61C282.11 117.08 281.41 117.55 280.71 117.55C279.64 118.63 277.98 119.2 277.98 120.79C278.73 120.79 282.16 119.36 282.16 120.36C281.46 121.06 281.66 121.75 281.66 122.74C281.66 123.49 281.11 124.03 280.72 124.61C279.38 124.61 279.67 125.38 278.42 124.11C277.59 123.28 277.28 122.97 276.55 122.24C274.52 120.22 273.48 123.68 272.37 123.68C271.44 123.68 270.86 124.11 270.07 124.11C269.37 124.11 269.37 122.74 270.07 122.74C270.65 121.87 272.33 122.13 271.01 120.8C270.14 120.8 269.78 120.66 269.14 121.3C268.45 122 268.15 122.62 267.34 121.8C266.48 121.8 265.91 121.67 265.47 120.79C263.66 119.57 264.97 118.03 264.97 116.61C263.96 116.61 263.84 115.75 262.67 115.75C262.2 116.21 261.6 116.02 261.3 116.61C260.19 116.61 259.86 116.9 259.86 115.75C259.38 115.27 258.92 115 258.92 114.31C258.12 113.51 257.27 112.01 258.92 112.01C260.05 112.01 261.85 112.39 262.67 111.58C264.13 111.58 264.43 109.48 265.48 108.77C266.75 108.77 267.56 109.2 268.72 109.2C269.65 110.13 271.03 110.15 271.96 111.07C272.56 111.67 273.39 112.44 274.26 112.44C274.26 111.8 275.6 111.6 276.13 111.07C276.72 110.48 276.56 109.99 276.56 109.2C277.31 108.46 277.34 107.24 276.56 106.46C275.8 106.46 275.28 107.3 274.76 107.83C273.38 107.83 272.89 107.91 272.89 106.46C272.89 105.64 272.39 105.11 272.39 104.08C271.71 103.4 269.65 102.41 269.65 104.08C271.33 104.08 270.41 105.52 269.15 105.52C268.43 105.52 267.35 104.25 267.35 105.95C264.98 107.53 264.83 104.89 263.61 103.65C262.48 103.65 260.96 103.85 260.37 105.02C259.35 105.7 259.32 106.46 257.99 106.46C257.29 107.16 255.48 107.18 254.75 106.46C253.98 106.46 253.21 106.46 252.45 106.46C249.44 106.46 254.68 103.3 255.26 102.72C255.73 102.25 256.89 101.35 257.56 101.35C258.14 100.48 259.12 99.78 259.86 99.05C260.84 97.58 263.07 95.35 264.54 94.37C264.54 93.88 265.35 92.57 265.66 92.26C265.93 91.99 266.41 90.56 266.41 90.2C266.41 87.15 262.57 89.77 261.3 89.77C260.68 89.98 258.86 91.52 258.49 92.07C257.74 92.44 256.11 94.11 256.11 94.88C254.53 95.66 252.11 100.09 250.13 98.12C248.22 98.12 246.89 101.06 246.89 102.73C244.96 104.02 242.78 104.1 240.34 104.1C239.43 105.02 238.83 106.12 238.04 106.91C237.11 107.84 237.93 108.78 236.17 108.78C235.55 109.4 234.79 108.88 234.37 109.72C234.37 110.64 234.37 111.56 234.37 112.47C234.37 113.51 234.56 113.64 233.87 114.32C233.44 114.75 232.76 114.73 232.5 115.26C231.56 115.88 230.63 116.27 230.63 114.83C230.63 113.75 230.63 112.67 230.63 111.59C230.63 110.51 231.57 109.3 231.57 108.28C231.57 107.25 232 106.64 232 105.54C232.66 104.55 232.97 103.63 233.87 102.73C234.68 101.92 234.81 101.11 234.81 99.92C234.81 99.23 235.24 98.92 235.24 98.12C235.24 97.5 235.24 96.87 235.24 96.25C235.86 95.32 235.74 94.62 235.74 93.44C235.74 92.31 236.17 91.46 236.17 90.2C236.17 89.03 236.67 88.49 236.67 87.39C236.67 86.29 236.31 84.43 237.1 83.65C237.1 82.74 236.78 81.46 237.6 80.91C237.6 79.77 238.03 79.17 238.03 78.1C238.03 77.75 238.58 75.55 238.97 75.29C238.97 74.57 240.84 71.99 240.84 73.49C240.84 75.01 239.8 74.77 241.27 76.23C244.35 76.23 243.07 72.41 241.77 71.12C239.65 72.53 239.99 69.75 241.77 69.75C243.23 69.75 244.07 68.26 244.07 66.94C244.07 66.25 243.28 65.63 242.67 65.36C241.97 65.05 241.26 65.87 240.83 66.51C240.83 68.8 239.89 67.62 239.89 66.08C239.89 64.69 239.89 63.3 239.89 61.9C239.44 61.46 238.95 60.67 238.95 60.03C238.95 58.21 239.98 57.56 241.25 56.29C241.81 55.72 242.1 54.81 242.69 54.42C242.69 53.7 241.76 53.06 241.25 52.55C239.7 51 242.37 50.75 243.12 50.25C243.12 49.46 242.69 48.9 242.69 47.95C243.36 47.28 243.89 47.11 244.49 46.51C244.49 45.13 242.1 44.63 241.25 43.77C241.25 42.43 242.19 40.93 242.19 39.59C242.19 38.13 243.95 38.14 245 37.72C246.56 35.37 245.94 31.56 245.94 28.66C245.94 27.36 246.36 25.18 245.44 24.26C245.44 22.9 245.7 21.31 246.88 20.52C246.2 20.06 245.94 18.58 245.94 17.78C245.46 17.3 245 16.05 245 15.4C245 14.94 245 14.49 245 14.03C245 13.27 244.5 13.35 244.5 12.59C244.5 11.73 244.71 10.93 244.07 10.29C244.07 8.75002 244.07 7.22002 244.07 5.68002C244.07 4.89002 244.5 4.31002 244.5 3.38002C245.62 3.38002 246.3 3.38002 247.31 2.88002C248.42 2.88002 248.92 3.38002 250.12 3.38002C251.16 4.42002 250.53 8.02002 249.62 8.92002C249.62 12.58 249.62 16.23 249.62 19.89C249.62 21.8 249.62 23.72 249.62 25.63C249.62 26.59 249.19 27.04 249.19 28.01C249.19 28.47 249.19 28.92 249.19 29.38C249.19 30.05 248.69 30.08 248.69 30.75C248.69 31.83 248.69 32.91 248.69 33.99C248.69 35.78 248.31 39.1 250.56 39.1C251.65 39.1 252.36 39.07 253.37 38.67C253.89 37.9 254.09 37.02 254.74 36.37C255.55 35.17 257.79 33.29 259.42 34.93C260.22 35.73 260.4 37.2 261.72 35.87C262.53 35.06 263.16 34.34 263.16 35.87C263.58 36.73 265.09 36.37 265.89 36.37C267.12 36.37 267.36 35.76 268.19 34.93C269.03 34.93 268.98 34.43 269.63 33.99C270.09 33.99 270.54 33.99 271 33.99C271.62 34.61 272.94 34.93 273.81 34.93C274.57 34.17 275.26 29.46 277.05 31.26C277.05 32.17 277.05 33.08 277.05 34C277.05 35.1 276.11 34.68 276.11 35.87C277.23 35.87 278.41 36.17 278.41 37.24C278.41 38.47 279.15 39.11 280.28 39.11C280.28 37.72 281.71 36.37 283.09 36.37C283.09 37.12 281.89 39.11 283.52 39.11C284.8 40.39 285.82 38.7 285.82 40.98C285.05 41.75 283.61 42.85 282.58 42.85C280.82 44.61 277.04 44.57 277.04 47.96C277.04 48.69 276.54 48.93 276.54 49.76C275.76 50.54 276.38 50.7 275.17 50.7C274.54 50.07 273.27 48.9 272.36 48.9C272.36 50.05 271.5 51 271.5 52.14C272.37 52.14 273.97 53.93 274.74 54.44C275.34 54.44 275.94 54.44 276.54 54.44C277.25 54.44 277.27 54.01 277.98 54.01C278.85 54.01 280.14 53.15 280.71 52.57C281.07 52.21 283.09 50.16 283.09 51.63C283.8 52.34 284.46 53.47 284.46 54.44C284.46 56.19 283.66 54.94 282.59 54.94C281.97 55.24 282.16 55.77 282.16 56.31C282.16 57.18 282.81 56.81 283.53 56.81C284.21 56.81 284.47 58.34 284.47 59.11C286.25 59.99 284.04 64.1 284.04 65.16C284.04 67.25 286.34 68.77 286.34 70.7C285.08 71.95 281.11 72.23 282.6 74.44C282.6 75.04 284.04 76.74 284.47 77.18C285.4 78.11 285.48 79.13 286.34 79.99C286.34 80.93 286.34 81.86 286.34 82.8C286.34 83.86 285.84 84.39 285.84 85.54C286.48 86.18 286.78 87.44 286.78 88.35C286.78 89.11 287.28 89.03 287.28 89.79C287.28 90.25 287.28 90.7 287.28 91.16C287.98 91.85 287.71 93.01 287.71 93.97C287.71 94.77 287.63 94.75 288.21 95.34C288.21 96.28 288.21 97.21 288.21 98.15C287.28 99.09 288.3 99.95 286.77 99.95C285.66 99.95 284.97 99.01 284.03 99.95C284.03 101.34 284.03 102.73 284.03 104.13C283.21 104.95 281.9 104.56 281.22 105.57C281.22 107.94 281.56 109.92 279.85 111.62C279.85 112.82 281.65 112.51 281.65 113.92C282.54 114.82 283.45 115.36 284.46 114.35C285.6 113.22 283.87 112.63 284.89 111.61C285.42 111.08 286.98 110.17 287.7 110.17C289.51 110.14 288.15 111.13 287.69 111.58ZM250.11 56.79C250.67 55.95 252.08 56.11 252.85 55.35C253.85 54.35 253.42 53.42 254.29 52.54C254.79 52.04 256.09 50.47 256.09 49.73C255.51 49.16 255.44 48.58 254.72 49.3C254.02 49.3 253.78 49.55 253.78 50.24C252.85 50.24 252.59 48.61 251.91 47.94C251.91 47.07 250.46 45.56 249.61 45.56C249.52 47.7 249.44 49.85 249.35 51.99C249.3 53.15 248.44 56.79 250.11 56.79ZM248.67 59.09C249.06 59.29 249.82 60.53 250.11 60.96C250.82 59.9 251.05 59.91 251.05 58.58C250.47 58 249.18 57 249.18 58.58C249 58.76 248.83 58.93 248.67 59.09ZM245.93 87.89C246.42 87.15 246.16 86.02 244.99 86.02C244.92 86.06 244.92 86.08 244.93 86.08C244.13 86.72 245.07 87.89 245.93 87.89ZM243.56 89.77C243.56 90.76 244.23 90.71 245 90.71C245.85 89.43 244.5 90.33 244.5 89.27C243.95 89.26 243.56 89.15 243.56 89.77ZM239.88 102.29C239.88 101.1 238.69 101.52 238.01 100.85C236.16 102.69 237.89 102.17 238.95 103.23C239.21 102.87 239.52 102.56 239.88 102.29ZM244.49 97.18C244.49 95.59 241.49 96.24 240.31 96.24C238.49 98.09 243.73 97.93 244.49 97.18ZM246.87 94.37C245.97 93.77 245.2 93 244.06 93C243.24 93 243.29 93.09 242.69 92.5C241.66 92.5 241.66 93 240.82 93C240.82 95.31 244.84 95.63 246.36 94.87C246.53 94.71 246.7 94.54 246.87 94.37ZM263.57 71.12C263.57 68.66 261.25 68.82 259.39 68.82C257.78 70.45 260.97 70.4 261.69 71.12C261.69 72.56 258.72 72.4 257.95 71.62C257.43 71.62 256.08 69.09 256.08 68.38C256.08 67.49 255.94 67.15 256.58 66.51C257.32 66.51 257.95 65.89 257.95 65.14C257.95 63.35 254.87 64.25 254.28 65.14C253.29 65.14 253.12 64.92 252.41 64.2C252.41 63.3 251.47 63.25 251.47 62.33C250.2 60.43 249.57 61.84 248.66 62.76C248.66 65.46 247.29 67.88 247.29 70.68C247.29 72.24 246.86 73.29 246.86 74.86C246.86 75.6 246.36 75.87 246.36 76.73C246.36 77.82 246.57 77.87 247.3 78.6C249.13 78.6 249.24 80.98 250.11 81.84C250.11 83.06 250.11 84.29 250.11 85.51C250.11 86.53 249.61 87.07 249.61 87.89C249.61 89.42 249.18 90.69 249.18 92.07C249.18 93.48 248.84 95.1 249.61 96.25C250.48 94.94 252.09 93.41 251.77 91.73C251.36 89.55 251.91 88.04 251.91 86.02C253.13 84.81 254.31 83.18 255.65 81.84C255.65 81.22 255.96 80.4 255.22 80.4C254.42 80.4 253.94 80.56 253.35 79.97C251.97 79.97 252.09 76.97 252.85 76.23C253.69 75.4 255.43 74.86 256.59 74.86C259.06 74.86 263.57 74.39 263.57 71.12ZM264 60.46C264 59.34 263.09 59.09 262.2 59.09C261.29 58.17 259.82 58.34 259.82 59.83C259.82 60.77 259.63 61.21 260.32 61.9C260.99 61.9 261.02 61.4 261.69 61.4C262.68 61.4 263.34 61.12 264 60.46ZM266.81 63.27C266.24 62.41 264.78 62.6 265.87 63.7C266.18 63.54 266.49 63.4 266.81 63.27ZM271.92 59.53C271.92 58.55 271.13 58.23 270.55 59.1C269.18 59.55 270.66 60.5 270.98 60.97C271.42 60.31 271.92 60.37 271.92 59.53ZM273.79 116.62C273.79 115.62 272.77 114.4 271.92 115.25C271.05 116.11 270.98 116.37 270.98 117.55C271.8 118.38 272.27 119.51 273.28 118.49C273.29 117.75 273.79 117.48 273.79 116.62ZM284.88 106.47C283.2 106.47 283.97 107.39 283.08 108.27C283.08 109.86 283.4 108.77 284.45 108.77C285.41 108.77 286.32 108.26 286.32 107.4C286.32 106.2 285.99 106.47 284.88 106.47ZM276.1 23.31C277.11 23.31 276.1 22.29 276.1 23.31V23.31ZM29.0702 58.16C30.2302 58.16 29.0702 55.95 29.0702 58.16V58.16ZM265.87 63.7C266.16 63.56 265.73 63.56 265.87 63.7V63.7ZM260.76 28.85C260.62 28.71 260.76 29 260.76 28.85V28.85ZM261.7 28.85C261.7 28.25 261.7 27.65 261.7 27.05C260.51 27.05 259.69 27.78 260.76 28.85C260.76 29.73 261.7 29.73 261.7 28.85ZM284.02 46.06C284.02 47.08 283.97 48.87 282.58 48.87C282.58 51.23 285.82 47.86 285.82 46.49C285.82 45.16 284.02 44.36 284.02 46.06ZM270.05 133.83C270.05 135.15 270.39 134.77 271.49 134.77C272.62 134.77 272.86 134.53 272.86 133.4C272.86 131.57 270.05 132.78 270.05 133.83ZM244.99 86.02C244.96 86.04 244.95 86.06 244.93 86.08C244.96 86.09 245.09 86.02 244.99 86.02ZM284.88 119.43C283.28 119.43 283.08 119.12 283.08 120.8C283.75 120.8 283.78 121.3 284.45 121.3C285.34 121.3 285.55 120.8 286.32 120.8C286.32 119.89 285.43 119.98 284.88 119.43ZM279.84 133.4C278.27 133.4 278.9 130.79 278.9 129.66C277.63 128.82 276.77 128.8 275.16 128.8C275.16 131.11 276.22 129.35 277.46 130.6C277.46 131.91 278.59 132.7 277.46 133.84C276.84 134.46 277.03 134.84 277.03 135.71C277.03 137.4 277.01 136.63 277.97 137.58C278.6 137.58 278.71 138.01 279.34 138.01C280.34 138.01 280.82 137.58 281.64 137.58C282.03 136.98 282.6 136.19 283.08 135.71C283.97 134.83 283.08 134.8 283.08 133.84C281.82 133.83 281.1 133.4 279.84 133.4ZM239.38 111.58C239.38 113.31 238.52 114.86 238.52 116.62C238.52 117.81 238.02 118.33 238.02 119.43C238.02 120.39 238.28 121.54 237.59 122.24C237.59 124.05 237.03 127.35 239.39 127.35C239.87 127.35 240.35 127.35 240.83 127.35C241.6 127.35 241.02 126.91 241.77 126.41C241.77 125.33 241.77 124.25 241.77 123.17C240.99 122.65 241.27 121.65 241.27 120.79C241.27 120.33 241.81 118.44 242.21 118.05C242.21 116.07 243.58 114.54 243.58 112.43C243.58 111.52 243.58 110.61 243.58 109.69C243.58 108.23 243.25 107.93 242.21 106.88C240.06 106.9 240.64 110.33 239.38 111.58ZM234.77 122.24C234.77 123.39 236.79 122.24 234.77 122.24V122.24ZM236.64 116.62C237.32 116.62 237.07 116.33 237.07 115.76C236.08 115.76 234.73 116.62 236.64 116.62ZM217.13 68.38C217.13 69.22 217.56 70.09 217.56 71.12C217.56 72.37 217.56 73.62 217.56 74.86C217.56 76.99 216.62 78.85 216.62 80.91C216.62 82.18 216.19 82.99 216.19 84.15C216.19 85.71 216.19 87.27 216.19 88.83C216.19 90.37 216.19 91.9 216.19 93.44C216.19 94.54 215.69 95.08 215.69 96.25C214.65 97.29 215.26 100.81 215.26 102.3C216.09 103.12 215.54 104.55 216.2 105.54C216.2 106.77 216.57 108.35 215.7 109.21C215.7 110.48 215.27 111.19 215.27 112.45C214.38 113.34 215.2 114.4 214.33 115.26C214.33 116.58 213.83 117.33 213.83 118.5C213.83 119.06 213.42 120.85 212.96 121.31C212.96 122.27 212.56 123.82 212.02 124.62C212.02 125.76 211.08 126.29 211.08 127.36C211.08 128.54 209.64 129.41 209.64 130.6C208.89 131.34 208.41 132.56 207.84 133.41C207.84 134.64 205.97 134.95 205.97 136.22C204.96 136.89 204.02 138.09 203.16 138.96C201.73 140.39 199.14 140.83 197.11 140.83C195.03 140.83 194.27 143.64 192.07 143.64C190.15 143.64 187.39 145.16 187.39 147.31C185.76 148.95 181.34 146.14 181.34 149.69C181.34 150.56 181.47 150.86 180.84 151.49C179.57 151.49 180.27 151.36 179.47 150.55C179.47 149.54 178.7 148.25 177.6 148.25C176.32 148.25 175.27 148.28 174.36 149.19C173.54 150.01 172.28 149.69 171.12 149.69C169.95 148.51 168.37 150.14 167.45 151.06C166.47 151.72 165.89 152 164.64 152C163.78 152 163.79 152.43 162.77 152.43C162.15 152.43 161.52 152.43 160.9 152.43C160.31 152.43 158.45 152.79 158.16 153.37C155.61 155.06 155.4 158.05 152.04 158.05C150.5 158.05 150.24 157.57 150.24 156.15C150.24 154.54 150.47 153.6 149.3 152.43C148.27 152.43 147.09 151.49 146.13 151.49C145.47 150.83 145 148.88 143.75 150.12C143.19 150.68 143.59 151.06 142.81 151.06C142.17 151.06 141.95 151.31 141.95 150.56C141.95 149.04 140.21 149.19 139.14 149.19C137.98 148.42 137.47 146.89 135.9 146.89C134.34 146.89 132.78 146.89 131.22 146.89C128.84 146.89 126.44 146.72 124.74 145.02C122.56 142.84 118.26 145.54 116.39 143.65C115.33 143.65 114.33 143.9 113.58 143.15C112.64 143.15 111.47 143.42 110.77 142.72C108.81 142.72 106.18 141.29 104.79 139.91C102.71 138.52 101.48 138.08 101.48 135.3C101.48 134.28 101.03 132.19 101.98 131.56C103.12 130.42 103.85 129.98 103.85 128.32C103.85 126.89 100.54 123.47 99.1702 122.78C99.1702 121.61 98.7402 120.74 98.7402 119.47C98.0802 119.03 98.2402 118.79 98.2402 118.1C98.2402 117.36 97.8202 117.17 97.3002 116.66C96.3902 115.76 95.5002 115.23 95.5002 113.92C95.5002 112.84 95.5002 111.76 95.5002 110.68C96.0602 110.12 96.4402 108.19 96.4402 107.44C96.4402 106.13 96.4302 105.05 95.5002 104.13C95.5002 103.24 94.5602 102.37 94.5602 101.39C94.5602 100 94.5602 98.61 94.5602 97.21C94.5602 96.61 94.8702 94.18 95.5002 93.97C95.5002 93.08 96.1602 91.63 96.8702 91.16C97.7002 90.33 97.4502 89.15 98.2402 88.35C99.0202 87.57 99.9402 87.41 101.05 87.41C102.32 87.41 104.32 87.01 105.23 87.91C106.35 87.91 106.97 88.34 108.04 88.34C108.66 88.96 109.86 89.28 110.78 89.28C111.33 89.83 113.06 90.22 113.81 90.22C114.58 90.22 116.74 89.87 117.33 89.28C118.37 89.28 119.33 88.88 120.14 88.34C122.11 88.34 123.81 86.34 123.81 84.6C121.94 84.6 120.07 84.6 118.19 84.6C116.9 84.6 115.7 84.17 114.52 84.17C112.56 84.17 110.83 81.36 108.98 81.36C108.21 80.59 106.77 79.99 105.67 79.99C105.03 79.99 104.3 78.24 104.3 77.69C103.47 76.86 103.33 75.79 102.43 74.88C101.93 74.38 100.63 72.81 100.63 72.07C99.7702 71.49 98.7602 69.79 98.7602 68.83C98.7602 68.34 98.2202 66.49 97.8202 66.09C97.8202 64.64 98.2502 63.74 98.2502 62.35C98.4502 62.05 98.8402 61.15 99.1902 60.98C99.1902 60.3 99.0302 59.98 99.6902 59.54C99.6902 58.44 100.63 57.98 100.63 56.8C101.16 56.01 101.49 54.96 101.49 53.99C102.04 53.17 102.04 51.78 102.93 51.18C102.93 49.98 104.3 49.49 104.3 48.37C105.33 47.34 106.01 46.23 107.11 45.13C107.68 44.56 107.46 44.34 108.05 43.76C108.72 43.76 108.96 43.28 109.42 42.82C110.5 42.82 111.09 41.38 112.23 41.38C112.81 40.8 114.14 40.52 114.97 40.52C115.88 39.15 120.92 40.02 122.46 40.02C124.7 40.02 125.8 42.83 128 42.83C128.88 43.71 130.28 43.25 131.24 44.2C132.1 44.2 133.38 44.9 134.05 45.57C136.26 45.57 136.35 49.14 136.35 50.68C136.35 51.78 137.29 52.72 137.29 53.99C137.96 54.33 138.23 56.08 138.23 56.8C138.23 57.65 138.66 58.51 138.66 59.54C139.42 60.3 139.16 61.3 139.16 62.35C139.16 63.74 139.16 65.13 139.16 66.53C138.28 67.11 138.8 68.47 138.22 69.34C138.22 70.55 137.71 71.22 136.85 72.08C135.99 72.65 135.79 74.08 134.98 74.89C134.98 76.72 134.9 77.78 133.61 79.07C133.09 79.42 132.61 80 132.17 80.44C131.59 81.02 131.37 80.8 130.8 81.38C129.66 81.38 129.09 82.82 127.99 82.82C127.29 83.52 125.69 83.4 125.69 84.62C125.69 86.68 131.1 83.25 131.74 83.25C132.99 82 135.44 80.95 137.28 80.95C137.28 83.33 137.57 85.78 135.91 87.43C135.91 88.2 135.03 89.68 134.47 90.24C134.47 91.36 134.04 91.98 134.04 93.05C134.04 94.27 133.61 95.35 133.61 96.72C133.61 97.3 134.03 99.08 134.47 99.53C134.47 102.03 137.49 102.91 138.65 104.64C139.56 105.55 139.72 105.58 141.03 105.58C141.53 104.82 141.75 104.44 141.03 103.71C139.86 102.94 139.59 101.83 138.65 100.9C138.65 100.33 137.67 98.56 137.28 98.16C137.28 97.08 137.28 96 137.28 94.92C137.28 92.57 138.12 90.08 140.52 88.87C141.19 87.88 142.39 87.34 142.39 86.06C142.39 85.02 142.08 83.56 142.82 82.82C142.82 81.73 143.49 80.28 144.26 79.51C144.73 79.04 146.13 77.43 146.13 76.77C147.65 75.24 149.68 72.98 147.86 71.15C147.86 69.87 147 69.21 147 67.91C145.82 66.73 147 65.41 147 64.24C147 62.3 149.94 60.5 151.61 60.5C152.38 60.5 153.15 60.5 153.91 60.5C154.63 60.5 154.66 61 155.35 61C156.05 61 157.65 62.13 157.65 62.8C158.99 64.15 158.96 66.98 161.39 66.98C161.68 67.55 162.73 67.88 163.26 68.42C163.26 68.88 163.26 69.33 163.26 69.79C163.26 71.21 163.35 71.45 164.13 72.6C164.85 72.6 166 74.14 166 74.9C166.71 75.61 167.04 77.15 167.87 77.71C169.82 79.67 171.75 81.81 173.92 83.25C174.65 83.25 174.81 83.71 175.29 84.19C176.02 84.19 176.12 84.09 176.66 84.62C177.6 84.62 178.46 85.56 179.47 85.56C180.57 85.56 181.46 86.5 182.71 86.5C183.47 86.5 183.39 87 184.15 87C184.75 87 185.35 87 185.95 87C186.73 87 188.2 86.11 188.76 85.56C189.55 84.77 191 85.13 192.07 85.13C192.54 84.19 194.92 84.51 195.74 83.69C197.13 82.29 194.78 81.92 193.87 82.83C192.75 82.83 192.19 83.26 191.14 83.26C190.1 83.95 190.6 84.2 189.13 84.2C188.07 84.2 187.01 84.2 185.95 84.2C183.83 84.2 182.12 82.83 179.98 82.83C178.45 81.31 175.95 81.1 174.36 79.52C173.77 78.93 173.16 78.82 172.49 78.15C171.93 77.59 172.18 77.34 171.62 76.78C170.63 76.12 170.97 74.76 170.18 73.97C170.18 72.85 169.75 72.23 169.75 71.16C169.75 70.27 168.81 69.4 168.81 68.42C168.81 67.62 168.44 65.75 167.87 65.18C167.87 64.14 167.44 63.23 167.44 62.37C167.44 60.35 167.44 58.34 167.44 56.32C167.9 55.86 168.3 54.16 168.3 53.58C168.85 52.76 168.85 51.29 169.74 50.7C169.74 49.97 170.97 48.39 171.61 47.96C171.61 47.22 172.91 45.65 173.41 45.15C174.29 44.27 175.79 43.17 175.79 41.91C176.49 41.21 177.49 39.61 178.53 39.61C179.09 38.78 180.45 39.11 181.34 39.11C182.64 39.11 183.69 38.41 185.26 38.89C186.51 39.28 187.94 39.11 189.26 39.11C190.15 39.11 191.56 40.35 191.56 38.68C191.56 36.26 195.27 36.81 197.1 36.81C198.37 36.81 199.31 37.75 200.41 37.75C201.15 38.49 202.58 38.77 203.15 39.62C203.58 40.06 204.07 40.65 204.59 40.99C204.59 41.93 204.59 42.86 204.59 43.8C203.97 43.8 203.34 43.8 202.72 43.8C201.96 43.8 202.04 43.3 201.28 43.3C200.34 42.34 199.04 42 198.04 41C196.94 41 196.48 40.06 195.3 40.06C193.73 40.06 194.8 41.93 195.73 41.93C196.86 41.93 197.62 42.69 198.54 43.3C199.57 44.34 200.17 45.43 201.27 46.54C201.27 47.93 202.8 47.85 203.65 48.41C205.09 48.41 205.04 49.68 205.95 50.28C205.95 51.04 206.21 52.64 206.89 53.09C206.89 55.44 207.83 57.26 207.83 59.57C207.83 60.62 207.6 61.87 208.05 62.82C208.71 64.22 207.83 65.35 207.83 66.56C207.83 67.64 207.83 68.72 207.83 69.8C207.04 70.32 206.48 71.82 205.96 72.61C204.84 73.35 204.54 74.45 203.66 75.35C202.63 76.03 201.73 77.28 200.85 78.16C200.09 78.91 198.68 80.97 197.61 80.97C196.98 81.4 196.84 81.79 197.55 82.12C198.32 82.48 198.22 81.9 198.98 81.9C199.82 81.9 201.07 80.51 201.79 80.03C202.71 79.12 203.14 78.18 204.09 77.22C204.09 76.32 206.12 74.5 206.9 73.98C207.29 73.59 209.18 73.04 209.64 73.04C210.32 72.36 211.08 71.2 211.08 70.3C211.08 69.16 211.51 68.55 211.51 67.49C212.88 65.4 217.13 65.48 217.13 68.38ZM109.42 130.16C109.42 128.36 107.09 128.76 106.18 129.66C106.18 130.55 106.32 130.89 105.68 131.53C105.68 132.68 106.6 132.18 107.12 132.97C107.58 132.27 108.7 130.51 109.42 130.16ZM156.72 72.56C156.72 73.71 158.33 74.35 159.1 74.86C159.1 75.77 160.28 76.55 160.9 77.16C162.07 78.35 163.71 80.58 163.71 82.27C163.71 83.85 163.15 85.96 164.65 86.95C164.65 87.75 165.86 88.81 166.52 89.25C166.52 90.9 168.32 90.29 168.32 88.82C168.32 88.14 167.43 86.92 166.95 86.44C166.95 85.43 166.01 84.57 166.01 83.63C166.01 83.02 165.53 81.78 165.07 81.33C165.07 80.24 164.64 79.62 164.64 78.59C164.64 77.57 163.72 77.1 163.27 76.21C161.52 75.04 162.21 72.72 161.4 71.1C161.4 69.41 157.3 71.7 156.72 72.56ZM144.27 100.85C145.47 100.85 146.26 100.42 147.6 100.42C149.39 100.42 151.19 100.42 152.98 100.42C153.36 99.84 155.15 99.05 155.79 99.05C157.37 96.7 160.02 101.35 161.41 101.35C161.84 102.21 163.58 102.38 164.15 103.22C164.67 103.22 166.53 103.69 166.53 104.08C169.32 104.08 170.2 101.11 170.2 98.54C169.05 98.54 168.89 99.56 168.33 100.41C166.98 100.41 166.56 100.45 165.6 99.47C165.6 97.84 162.79 96.42 162.79 94.86C161.93 93.58 159.66 92.05 158.18 92.05C156.8 92.05 154.28 91.8 153.5 92.99C152.12 92.99 151.45 93.59 150.26 92.99C149.13 92.99 148.88 92.05 147.88 92.05C146.87 90.52 144.16 90.24 142.84 91.55C141.75 92.64 139.6 94.41 139.6 96.23C139.6 96.49 138.37 98.1 139.6 98.1C139.6 99.28 140.22 99.58 141.04 100.4C142.38 100.42 142.96 102.16 144.27 100.85ZM178.11 138C181.62 134.48 174.77 133.84 172.99 132.96C170.61 132.96 168.97 130.23 166.94 129.22C166.24 129.22 165.52 127.36 164.64 126.92C163.92 126.2 162.8 125.04 162.34 124.11C160.95 124.11 159.56 124.11 158.16 124.11C156.97 124.11 156.45 124.61 155.35 124.61C154.1 124.61 152.49 124.99 151.61 124.11C150.55 124.11 149.68 123.68 148.8 123.68C147.95 123.68 147.72 123.18 147 123.18C146.4 123.18 145.8 123.18 145.2 123.18C144.36 123.18 142.98 123.53 142.39 124.12C140.78 124.12 137.77 124.62 136.85 125.99C136.27 126.18 134.47 128.71 134.47 129.23C133.62 129.66 134.51 130.17 133.61 130.17C133.27 130.28 132.38 130.8 132.17 131.11C131.14 131.11 129.87 131.81 129.87 132.98C128.54 133.64 128 134.09 128 135.72C128.97 136.69 129.77 137.33 130.81 138.02C132.01 138.02 132.76 138.6 133.62 139.46C135.27 141.12 135.99 143.13 138.66 143.13C139.44 143.13 139.64 143.63 140.53 143.63C141.15 143.63 141.78 143.63 142.4 143.63C144.51 143.63 146.61 143.63 148.72 143.63C150.06 143.63 151.16 144.06 152.55 144.06C153.61 144.06 154.61 143.81 155.36 144.56C156.61 144.56 157.35 144.99 158.6 144.99C159.43 145.82 160.45 145.29 161.41 145.93C163.57 145.93 165.73 145.93 167.89 145.93C170.22 145.93 172.1 144.85 173.94 143.63C174.61 142.63 175.42 141.64 176.24 140.82C176.23 139.95 177.48 138.63 178.11 138C178.17 137.94 178.14 137.97 178.11 138ZM179.98 145.93C179.98 144.95 179.12 144.64 178.54 145.5C178.54 146.53 179.37 146.53 179.98 145.93ZM28.6402 62.33C28.6402 63.72 28.6402 65.11 28.6402 66.51C28.6402 67.13 28.3402 67.88 29.0702 67.88C29.8802 67.88 30.4402 67.94 30.4402 66.94C30.4402 65.92 30.7602 64.45 30.0102 63.7C30.0002 62.2 29.8502 60.51 28.6402 62.33ZM285.82 131.53C285.96 131.53 285.67 131.38 285.82 131.53V131.53ZM30.0002 47C30.7502 46.26 30.9402 42.82 29.5702 42.82C28.1802 43.75 28.1302 47 30.0002 47ZM30.9402 52.11C33.6702 52.11 30.9402 49.37 30.9402 52.11V52.11ZM107.55 85.52C108.91 85.52 109.78 86.96 111.29 86.96C112.41 86.96 113.73 87.27 114.53 86.46C114.53 85.65 112.15 85.09 111.29 85.09C110.38 84.17 109.03 84.63 108.05 83.65C106.8 83.65 105.24 81.5 105.24 80.41C105.24 79.63 103.17 79.98 102.43 79.98C102.43 81.21 103.44 82.35 104.3 83.22C105.19 83.21 106.9 84.87 107.55 85.52ZM230.59 125.05C230.49 125.08 230.5 125.08 230.53 125.08C229.97 125.31 229.91 125.99 230.59 125.99C231.38 125.98 231.38 125.05 230.59 125.05ZM285.82 131.53C284.9 130.61 283.96 131.54 284.88 132.47C285.62 132.46 287.22 131.53 285.82 131.53ZM20.2802 29.36C20.3502 29.36 20.0702 29.14 20.2802 29.36V29.36Z" fill="white"/>
</svg>
